<svg width="52" height="52" viewBox="0 0 52 52" fill="none" xmlns="http://www.w3.org/2000/svg">
<path d="M20.5784 6.00392C25.6016 5.93211 30.553 6.97624 34.3138 10.2158C35.9745 11.6464 37.2004 13.3285 38.0667 15.167C39.9222 15.0562 41.8249 15.5928 43.4026 16.8213L43.4046 16.8233C47.2925 19.8533 49.2087 24.0438 49.2786 28.8692C49.3249 32.064 48.7601 35.2047 47.3128 37.9639C46.5853 39.2027 45.6666 40.3565 44.5315 41.3926C40.8661 44.7383 35.9473 45.9243 30.9241 45.9961C25.9012 46.0679 20.9504 45.0235 17.1897 41.7842C15.529 40.3536 14.3022 38.6715 13.4358 36.833C11.5805 36.9438 9.67859 36.407 8.10088 35.1787L8.09795 35.1768C4.2101 32.1467 2.29482 27.9562 2.2249 23.1309C2.17865 19.9362 2.74257 16.7952 4.18975 14.0361C4.91732 12.7971 5.8358 11.6436 6.971 10.6074C10.6365 7.26163 15.5552 6.07575 20.5784 6.00392ZM23.0267 21.6055C22.4561 20.8906 21.4165 20.778 20.7073 21.3506C18.3461 23.2518 17.1986 25.7553 17.1985 29.0049C17.1985 36.8601 21.6461 40.8437 30.4212 40.8438C39.1964 40.8438 43.6448 36.8601 43.6448 29.0049C43.6447 25.765 42.4962 23.2628 40.138 21.3516V21.3535C39.4289 20.7779 38.3919 20.8919 37.8196 21.6016C37.2474 22.3131 37.3592 23.3562 38.0667 23.9287C39.6432 25.2045 40.3459 26.7695 40.346 29.0049C40.346 33.2213 39.1667 37.5342 30.4212 37.5342C21.6758 37.5341 20.4964 33.2229 20.4964 29.0049C20.4965 26.7645 21.1995 25.1991 22.7728 23.9317C23.4833 23.3608 23.5969 22.3186 23.0267 21.6055ZM20.5843 11.0576C11.8092 11.0576 7.36273 15.0405 7.3626 22.8955C7.3626 26.1354 8.51043 28.6376 10.8685 30.5488C11.5776 31.123 12.6155 31.0124 13.1878 30.3008C13.7598 29.5892 13.6472 28.5452 12.9397 27.9727C11.3634 26.6969 10.6614 25.131 10.6614 22.8955C10.6615 18.6793 11.8404 14.3674 20.5853 14.3672C29.3306 14.3672 30.51 18.6776 30.5101 22.8955C30.5101 25.1361 29.808 26.7022 28.2347 27.9697C27.524 28.5407 27.4102 29.5827 27.9808 30.2959C28.3056 30.703 28.7854 30.915 29.2669 30.9151C29.6297 30.9151 29.9947 30.7957 30.2981 30.5508C32.6595 28.6495 33.8069 26.1454 33.8069 22.8955C33.8068 15.0406 29.3592 11.0577 20.5843 11.0576Z" fill="#2C46B1"/>
</svg>
