<svg width="162" height="44" viewBox="0 0 162 44" fill="none" xmlns="http://www.w3.org/2000/svg">
<path d="M19.3371 3.22491C24.0812 3.15714 28.757 4.14484 32.3088 7.2044C33.8772 8.55552 35.0355 10.1438 35.8537 11.8802C37.6061 11.7756 39.4027 12.2824 40.8928 13.4427L40.8947 13.4437C44.5667 16.3054 46.3765 20.2634 46.4426 24.8206C46.4863 27.8379 45.953 30.8046 44.5861 33.4105C43.899 34.5805 43.0312 35.6702 41.9592 36.6487C38.4975 39.8084 33.8525 40.9285 29.1086 40.9964C24.3644 41.0642 19.6879 40.0775 16.1359 37.0179C14.5675 35.6668 13.4092 34.0784 12.591 32.3421C10.8386 32.4467 9.04208 31.9399 7.55196 30.7796L7.55001 30.7776C3.87807 27.9159 2.06813 23.958 2.00215 19.4007C1.95853 16.3836 2.49188 13.4175 3.8586 10.8118C4.54576 9.64164 5.41341 8.55218 6.48555 7.57354C9.9474 4.41372 14.593 3.29275 19.3371 3.22491ZM37.8098 17.723C37.14 17.1791 36.1608 17.2869 35.6203 17.9573C35.0799 18.6294 35.1855 19.6139 35.8537 20.1546C37.3427 21.3596 38.0061 22.8381 38.0061 24.9495C38.006 28.9316 36.8926 33.0042 28.633 33.0042C20.3734 33.0042 19.26 28.9332 19.26 24.9495C19.26 22.8334 19.9235 21.3547 21.4094 20.1575C22.0805 19.6183 22.1875 18.6338 21.6486 17.9603C21.1097 17.2852 20.1289 17.1793 19.4592 17.72C17.2288 19.5157 16.1447 21.8801 16.1447 24.9495C16.1448 32.3683 20.3453 36.1302 28.633 36.1302C36.9207 36.1302 41.1212 32.3683 41.1213 24.9495C41.1213 21.8895 40.0371 19.5261 37.8098 17.721V17.723ZM19.342 7.99835C11.0545 7.99841 6.85578 11.7604 6.85567 19.179C6.85567 22.239 7.93909 24.6025 10.1662 26.4075C10.836 26.9498 11.8162 26.8452 12.3566 26.1732C12.8971 25.5012 12.7914 24.5147 12.1232 23.9739C10.6342 22.769 9.96993 21.2904 9.96993 19.179C9.96998 15.197 11.0845 11.1243 19.344 11.1243C27.6033 11.1244 28.7169 15.1954 28.717 19.179C28.717 21.2951 28.0535 22.7739 26.5676 23.971C25.8964 24.5101 25.7887 25.4947 26.3274 26.1683C26.6342 26.5527 27.0884 26.7532 27.5432 26.7532C27.8855 26.7531 28.2295 26.6405 28.5158 26.4095C30.7462 24.6138 31.8303 22.2485 31.8303 19.179C31.8302 11.7603 27.6296 7.99835 19.342 7.99835Z" fill="#2C46B1"/>
<path d="M70.4182 15.0446C71.8701 15.0446 73.1664 15.418 74.3071 16.1646C75.4686 16.8906 76.3812 17.8965 77.0449 19.1824C77.7294 20.4684 78.0716 21.9617 78.0716 23.6624C78.0716 25.3632 77.7294 26.8669 77.0449 28.1736C76.3812 29.4595 75.479 30.4758 74.3382 31.2225C73.2182 31.9484 71.9531 32.3114 70.5427 32.3114C69.713 32.3114 68.9353 32.1765 68.2093 31.9069C67.4834 31.6373 66.8404 31.2951 66.2804 30.8802C65.7412 30.4654 65.316 30.0506 65.0049 29.6358C64.7145 29.2002 64.5693 28.8373 64.5693 28.5469L65.5338 28.1425V30.4136C65.5338 30.9528 65.3575 31.4091 65.0049 31.7825C64.6523 32.1351 64.2064 32.3114 63.6671 32.3114C63.1278 32.3114 62.6819 32.1351 62.3293 31.7825C61.9767 31.4299 61.8004 30.9736 61.8004 30.4136V10.8757C61.8004 10.3365 61.9767 9.89054 62.3293 9.53794C62.6819 9.16461 63.1278 8.97794 63.6671 8.97794C64.2064 8.97794 64.6523 9.16461 65.0049 9.53794C65.3575 9.89054 65.5338 10.3365 65.5338 10.8757V18.778L65.0049 18.498C65.0049 18.2283 65.1501 17.9069 65.4404 17.5335C65.7308 17.1395 66.1249 16.7557 66.6227 16.3824C67.1204 15.9883 67.6908 15.6669 68.3338 15.418C68.9975 15.1691 69.6923 15.0446 70.4182 15.0446ZM69.9516 18.4669C69.039 18.4669 68.2404 18.695 67.556 19.1513C66.8716 19.6076 66.3323 20.2298 65.9382 21.018C65.5649 21.7854 65.3782 22.6669 65.3782 23.6624C65.3782 24.6373 65.5649 25.5291 65.9382 26.338C66.3323 27.1262 66.8716 27.7484 67.556 28.2047C68.2404 28.661 69.039 28.8891 69.9516 28.8891C70.8642 28.8891 71.6523 28.661 72.316 28.2047C73.0005 27.7484 73.5294 27.1262 73.9027 26.338C74.2968 25.5291 74.4938 24.6373 74.4938 23.6624C74.4938 22.6669 74.2968 21.7854 73.9027 21.018C73.5294 20.2298 73.0005 19.6076 72.316 19.1513C71.6523 18.695 70.8642 18.4669 69.9516 18.4669ZM83.2028 32.0002C82.6635 32.0002 82.2176 31.8239 81.865 31.4714C81.5124 31.098 81.3361 30.6417 81.3361 30.1025V17.2535C81.3361 16.7143 81.5124 16.2683 81.865 15.9157C82.2176 15.5424 82.6635 15.3557 83.2028 15.3557C83.742 15.3557 84.1879 15.5424 84.5405 15.9157C84.8931 16.2683 85.0694 16.7143 85.0694 17.2535V20.178L84.8517 18.0935C85.0798 17.5957 85.3702 17.1602 85.7228 16.7869C86.0961 16.3928 86.5109 16.0713 86.9672 15.8224C87.4235 15.5528 87.9109 15.3557 88.4294 15.2313C88.948 15.1069 89.4665 15.0446 89.985 15.0446C90.6072 15.0446 91.1257 15.2209 91.5406 15.5735C91.9761 15.9261 92.1939 16.3409 92.1939 16.818C92.1939 17.5024 92.0176 18.0002 91.665 18.3113C91.3124 18.6017 90.9287 18.7469 90.5139 18.7469C90.1198 18.7469 89.7569 18.6743 89.425 18.5291C89.1139 18.3839 88.7509 18.3113 88.3361 18.3113C87.9628 18.3113 87.5791 18.4046 87.185 18.5913C86.8117 18.7572 86.4591 19.0269 86.1272 19.4002C85.8161 19.7735 85.5568 20.2402 85.3494 20.8002C85.1628 21.3395 85.0694 21.9824 85.0694 22.7291V30.1025C85.0694 30.6417 84.8931 31.098 84.5405 31.4714C84.1879 31.8239 83.742 32.0002 83.2028 32.0002ZM101.967 32.3114C100.204 32.3114 98.6692 31.9484 97.3625 31.2225C96.0766 30.4758 95.081 29.4699 94.3758 28.2047C93.6914 26.9395 93.3491 25.5084 93.3491 23.9113C93.3491 22.0447 93.7225 20.458 94.4692 19.1513C95.2366 17.8239 96.2321 16.8076 97.4558 16.1024C98.6795 15.3972 99.9758 15.0446 101.345 15.0446C102.403 15.0446 103.398 15.2624 104.331 15.698C105.285 16.1335 106.125 16.735 106.851 17.5024C107.577 18.2491 108.148 19.1202 108.563 20.1158C108.998 21.1113 109.216 22.1691 109.216 23.2891C109.195 23.7869 108.998 24.1913 108.625 24.5024C108.251 24.8136 107.816 24.9691 107.318 24.9691H95.4336L94.5003 21.858H105.918L105.234 22.4802V21.6402C105.192 21.0387 104.974 20.4995 104.58 20.0224C104.207 19.5454 103.73 19.1721 103.149 18.9024C102.589 18.612 101.988 18.4669 101.345 18.4669C100.723 18.4669 100.142 18.5498 99.6025 18.7158C99.0632 18.8817 98.5966 19.1617 98.2025 19.5558C97.8084 19.9498 97.4973 20.4787 97.2692 21.1424C97.041 21.8061 96.9269 22.6461 96.9269 23.6624C96.9269 24.7824 97.1551 25.7365 97.6114 26.5247C98.0884 27.2921 98.6899 27.8832 99.4158 28.298C100.163 28.6921 100.951 28.8891 101.78 28.8891C102.548 28.8891 103.16 28.8269 103.616 28.7025C104.072 28.578 104.435 28.4328 104.705 28.2669C104.995 28.0802 105.254 27.9247 105.483 27.8002C105.856 27.6136 106.208 27.5202 106.54 27.5202C106.997 27.5202 107.37 27.6758 107.66 27.9869C107.971 28.298 108.127 28.661 108.127 29.0758C108.127 29.6358 107.837 30.1439 107.256 30.6002C106.717 31.0565 105.96 31.461 104.985 31.8136C104.01 32.1454 103.004 32.3114 101.967 32.3114ZM113.072 15.3557C113.467 15.3557 113.829 15.4594 114.161 15.6669C114.493 15.8535 114.742 16.1439 114.908 16.538L119.481 26.9913L118.797 27.3025L123.464 16.5691C123.816 15.7394 124.366 15.3454 125.112 15.3869C125.631 15.3869 126.046 15.5528 126.357 15.8846C126.689 16.1957 126.855 16.5898 126.855 17.0669C126.855 17.212 126.824 17.3676 126.761 17.5335C126.72 17.6995 126.668 17.855 126.606 18.0002L120.788 30.818C120.456 31.5647 119.927 31.9588 119.201 32.0002C118.807 32.0625 118.424 31.9899 118.05 31.7825C117.698 31.5751 117.428 31.2536 117.241 30.818L111.455 18.0002C111.413 17.8965 111.361 17.7617 111.299 17.5957C111.258 17.4298 111.237 17.2328 111.237 17.0046C111.237 16.6313 111.403 16.2683 111.735 15.9157C112.067 15.5424 112.512 15.3557 113.072 15.3557ZM131.444 31.9691C130.843 31.9691 130.376 31.8136 130.044 31.5025C129.733 31.1706 129.578 30.7039 129.578 30.1025V29.5736C129.578 28.9721 129.733 28.5158 130.044 28.2047C130.376 27.8728 130.843 27.7069 131.444 27.7069H131.849C132.45 27.7069 132.907 27.8728 133.218 28.2047C133.55 28.5158 133.715 28.9721 133.715 29.5736V30.1025C133.715 30.7039 133.55 31.1706 133.218 31.5025C132.907 31.8136 132.45 31.9691 131.849 31.9691H131.444ZM141.587 30.1025C141.587 30.6417 141.401 31.098 141.027 31.4714C140.675 31.8239 140.229 32.0002 139.69 32.0002C139.171 32.0002 138.735 31.8239 138.383 31.4714C138.03 31.098 137.854 30.6417 137.854 30.1025V10.8757C137.854 10.3365 138.03 9.89054 138.383 9.53794C138.756 9.16461 139.213 8.97794 139.752 8.97794C140.291 8.97794 140.727 9.16461 141.058 9.53794C141.411 9.89054 141.587 10.3365 141.587 10.8757V30.1025ZM157.824 15.3557C158.363 15.3557 158.809 15.5424 159.162 15.9157C159.514 16.2683 159.69 16.7143 159.69 17.2535V30.4758C159.69 32.3839 159.327 33.898 158.602 35.018C157.896 36.1588 156.942 36.978 155.739 37.4758C154.536 37.9736 153.188 38.2225 151.695 38.2225C151.031 38.2225 150.326 38.1706 149.579 38.0669C148.833 37.9632 148.221 37.8077 147.744 37.6003C147.121 37.3306 146.686 36.9884 146.437 36.5736C146.209 36.1795 146.167 35.7543 146.313 35.298C146.499 34.6965 146.8 34.2817 147.215 34.0536C147.63 33.8462 148.065 33.8254 148.521 33.9914C148.853 34.0951 149.289 34.2506 149.828 34.458C150.367 34.6862 150.99 34.8003 151.695 34.8003C152.649 34.8003 153.437 34.6654 154.059 34.3958C154.702 34.1469 155.179 33.7114 155.49 33.0891C155.822 32.4877 155.988 31.658 155.988 30.6002V28.5158L156.642 29.2625C156.289 29.9469 155.843 30.5173 155.304 30.9736C154.785 31.4091 154.163 31.741 153.437 31.9691C152.711 32.1973 151.881 32.3114 150.948 32.3114C149.849 32.3114 148.884 32.0625 148.055 31.5647C147.246 31.0462 146.613 30.341 146.157 29.4491C145.701 28.5365 145.473 27.4995 145.473 26.338V17.2535C145.473 16.7143 145.649 16.2683 146.001 15.9157C146.354 15.5424 146.8 15.3557 147.339 15.3557C147.879 15.3557 148.324 15.5424 148.677 15.9157C149.03 16.2683 149.206 16.7143 149.206 17.2535V25.218C149.206 26.5662 149.496 27.5202 150.077 28.0802C150.679 28.6195 151.508 28.8891 152.566 28.8891C153.292 28.8891 153.904 28.7543 154.402 28.4847C154.899 28.1943 155.283 27.7795 155.553 27.2402C155.822 26.6802 155.957 26.0061 155.957 25.218V17.2535C155.957 16.7143 156.133 16.2683 156.486 15.9157C156.839 15.5424 157.284 15.3557 157.824 15.3557Z" fill="#2C46B1"/>
</svg>
